<svg width="212" height="52" viewBox="0 0 212 52" fill="none" xmlns="http://www.w3.org/2000/svg">
<path d="M18.4165 40.564C14.8895 40.564 11.8011 39.7135 9.15137 38.0127C6.50163 36.2939 4.43376 33.9396 2.94775 30.9497C1.47965 27.9598 0.745605 24.5581 0.745605 20.7446V20.1538C0.745605 16.3582 1.47965 12.9655 2.94775 9.97559C4.43376 6.98568 6.49268 4.63135 9.12451 2.9126C11.7743 1.19385 14.8626 0.334473 18.3896 0.334473C21.9167 0.334473 25.014 1.19385 27.6816 2.9126C30.3672 4.63135 32.453 6.98568 33.939 9.97559C35.4429 12.9655 36.1948 16.3582 36.1948 20.1538V20.7446C36.1948 24.5581 35.4518 27.9598 33.9658 30.9497C32.4798 33.9396 30.394 36.2939 27.7085 38.0127C25.0409 39.7135 21.9435 40.564 18.4165 40.564ZM18.4165 34.4678C21.7287 34.4678 24.2173 33.2145 25.8823 30.708C27.5474 28.1836 28.3799 24.8625 28.3799 20.7446V20.1001C28.3799 17.3966 28.0039 15.0244 27.252 12.9834C26.5 10.9245 25.381 9.3221 23.895 8.17627C22.4269 7.03044 20.5918 6.45752 18.3896 6.45752C15.0954 6.45752 12.6336 7.71077 11.0044 10.2173C9.39307 12.7238 8.5874 16.0181 8.5874 20.1001V20.7446C8.5874 24.8625 9.40202 28.1836 11.0312 30.708C12.6784 33.2145 15.1401 34.4678 18.4165 34.4678ZM53.812 40V35.3003L58.0015 34.4946V16.4746L53.812 15.6689V10.9424H69.3882V15.6689L65.8164 16.4746V22.0068H68.502L72.8525 15.5615C73.9447 13.8786 75.0815 12.6164 76.2632 11.7749C77.4448 10.9155 78.8771 10.4858 80.5601 10.4858C81.5627 10.4858 82.431 10.6112 83.165 10.8618C83.8991 11.1125 84.6152 11.4526 85.3135 11.8823L83.9976 17.3071C83.4963 17.1818 83.1471 17.1012 82.9502 17.0654C82.7712 17.0117 82.5474 16.9849 82.2788 16.9849C81.6701 16.9849 81.0793 17.1908 80.5063 17.6025C79.9334 18.0143 79.4321 18.5335 79.0024 19.1602L75.2427 24.6387L81.9834 34.6558L85.9312 35.3003V40H75.1621L68.8242 29.1235H65.8164V34.4946L69.3882 35.3003V40H53.812ZM96.8345 51.7358C96.172 51.7358 95.4559 51.6732 94.686 51.5479C93.9162 51.4404 93.1911 51.2882 92.5107 51.0913L93.397 45.3442C93.7371 45.4159 94.1131 45.4696 94.5249 45.5054C94.9367 45.5412 95.2948 45.5591 95.5991 45.5591C97.9624 45.5591 99.5379 44.4132 100.326 42.1216L100.97 40.3223L91.2485 16.1792L87.6768 15.6689V10.9424H103.092V15.6689L99.5469 16.2061L104.112 29.0161L104.676 30.6006H104.837L110.235 16.1523L106.771 15.6689V10.9424H121.139V15.6689L117.862 16.1255L106.771 44.3237C106.234 45.6665 105.545 46.9019 104.703 48.0298C103.88 49.1577 102.823 50.0529 101.534 50.7153C100.263 51.3957 98.6965 51.7358 96.8345 51.7358ZM123.126 51.1719V46.4453L126.913 45.6396V16.4746L122.723 15.6689V10.9424H134.11L134.486 14.3262C135.345 13.0729 136.384 12.1061 137.601 11.4258C138.819 10.7454 140.269 10.4053 141.952 10.4053C144.297 10.4053 146.302 11.0498 147.967 12.3389C149.632 13.61 150.903 15.3914 151.781 17.6831C152.676 19.9748 153.124 22.6514 153.124 25.7129V26.2769C153.124 29.1414 152.676 31.6479 151.781 33.7964C150.886 35.9269 149.597 37.592 147.914 38.7915C146.249 39.9731 144.243 40.564 141.898 40.564C138.836 40.564 136.446 39.4539 134.728 37.2339V45.6396L138.514 46.4453V51.1719H123.126ZM139.562 34.5483C141.567 34.5483 143.017 33.8053 143.912 32.3193C144.825 30.8333 145.282 28.8192 145.282 26.2769V25.7129C145.282 22.9736 144.816 20.7536 143.885 19.0527C142.954 17.3519 141.495 16.5015 139.508 16.5015C137.324 16.5015 135.73 17.4325 134.728 19.2944V32.0239C135.712 33.7069 137.324 34.5483 139.562 34.5483ZM170.714 40.564C167.921 40.564 165.504 39.9373 163.463 38.6841C161.44 37.4308 159.882 35.7031 158.79 33.501C157.698 31.2988 157.152 28.7655 157.152 25.9009V25.0952C157.152 22.2485 157.707 19.7241 158.817 17.522C159.927 15.3019 161.493 13.5653 163.517 12.312C165.54 11.0409 167.921 10.4053 170.66 10.4053C173.256 10.4053 175.503 10.8171 177.401 11.6406C179.299 12.4463 180.838 13.3862 182.02 14.4604L181.966 22.7856H176.058L175.011 17.6025C174.581 17.1729 174.035 16.8237 173.373 16.5552C172.71 16.2866 172.039 16.1523 171.358 16.1523C169.21 16.1523 167.608 16.9491 166.551 18.5425C165.513 20.118 164.994 22.3022 164.994 25.0952V25.9009C164.994 28.8908 165.558 31.084 166.686 32.4805C167.813 33.859 169.174 34.5483 170.768 34.5483C172.146 34.5483 173.247 34.1903 174.071 33.4741C174.912 32.7401 175.494 31.7106 175.816 30.3857H182.503L182.584 30.5469C182.118 33.6442 180.973 36.0881 179.146 37.8784C177.32 39.6688 174.509 40.564 170.714 40.564ZM200.013 40.564C197.22 40.564 194.785 39.9552 192.708 38.7378C190.65 37.5024 189.047 35.8105 187.901 33.6621C186.773 31.5137 186.209 29.0609 186.209 26.3037V25.2295C186.209 22.347 186.747 19.7957 187.821 17.5757C188.895 15.3377 190.408 13.5832 192.359 12.312C194.329 11.0229 196.647 10.3874 199.315 10.4053C203.236 10.4053 206.235 11.5601 208.312 13.8696C210.388 16.1613 211.427 19.384 211.427 23.5376V27.8076H194.347L194.293 27.9688C194.436 29.8844 195.072 31.46 196.2 32.6953C197.328 33.9307 198.93 34.5483 201.007 34.5483C202.439 34.5483 203.773 34.3693 205.008 34.0112C206.262 33.6353 207.479 33.0892 208.661 32.373L210.782 37.207C209.583 38.1738 208.07 38.9795 206.244 39.624C204.435 40.2507 202.359 40.564 200.013 40.564ZM194.4 22.6245H204.095V21.9263C204.095 20.1717 203.728 18.7842 202.994 17.7637C202.278 16.7253 201.096 16.2061 199.449 16.2061C197.874 16.2061 196.674 16.8058 195.851 18.0054C195.027 19.187 194.517 20.682 194.32 22.4902L194.4 22.6245Z" fill="black"/>
</svg>
